<?xml version="1.0" encoding="UTF-8"?>
<svg width="60px" height="40px" viewBox="0 0 60 40" version="1.1" xmlns="http://www.w3.org/2000/svg" xmlns:xlink="http://www.w3.org/1999/xlink">
    <!-- Generator: Sketch 53.2 (72643) - https://sketchapp.com -->
    <title>assistance</title>
    <desc>Created with Sketch.</desc>
    <defs>
        <polygon id="path-1" points="0 0.0651245552 59.9380048 0.0651245552 59.9380048 39.9288256 0 39.9288256"></polygon>
    </defs>
    <g id="Page-1" stroke="none" stroke-width="1" fill="none" fill-rule="evenodd">
        <g id="Desktop-01.Home" transform="translate(-691.000000, -6515.000000)">
            <g id="assistance" transform="translate(691.000000, 6515.000000)">
                <g id="Group-3" transform="translate(0.000000, 0.006050)">
                    <mask id="mask-2" fill="white">
                        <use xlink:href="#path-1"></use>
                    </mask>
                    <g id="Clip-2"></g>
                    <path d="M-1.42517815e-05,27.9891103 C-1.42517815e-05,27.3202847 0.545900238,26.7747331 1.21559145,26.7747331 L7.57808551,26.7747331 C5.28369121,28.3227046 3.91495012,30.8904626 3.91495012,33.6569395 L1.21559145,33.6569395 C0.546541568,33.6569395 -1.42517815e-05,33.1114591 -1.42517815e-05,32.4426335 L-1.42517815e-05,27.9891103 Z M52.6452114,26.7747331 L58.7224561,26.7747331 C59.3921473,26.7747331 59.9380618,27.3202847 59.9380618,27.9891103 L59.9380618,32.4426335 C59.9380618,33.1114591 59.3910784,33.6569395 58.7224561,33.6569395 L56.3084181,33.6569395 C56.3084181,30.8904626 54.9395344,28.3227046 52.6452114,26.7747331 L52.6452114,26.7747331 Z M17.0948551,26.7747331 L43.3566128,26.7747331 C41.0622898,28.3227046 39.69362,30.8904626 39.69362,33.6569395 L20.7579192,33.6569395 C20.7579192,30.8904626 19.3892494,28.3227046 17.0948551,26.7747331 L17.0948551,26.7747331 Z M48.0011259,27.3811388 C51.4702945,27.3811388 54.2824561,30.1900356 54.2824561,33.6549466 C54.2824561,37.12 51.4702945,39.9288256 48.0011259,39.9288256 C44.5322423,39.9288256 41.7200808,37.12 41.7200808,33.6549466 C41.7200808,30.1900356 44.5322423,27.3811388 48.0011259,27.3811388 L48.0011259,27.3811388 Z M48.0011259,31.2264057 C49.3440713,31.2264057 50.4325511,32.3138078 50.4325511,33.6549466 C50.4325511,34.9961566 49.3440713,36.0836299 48.0011259,36.0836299 C46.658323,36.0836299 45.5697007,34.9961566 45.5697007,33.6549466 C45.5697007,32.3138078 46.658323,31.2264057 48.0011259,31.2264057 L48.0011259,31.2264057 Z M12.4508409,27.3811388 C15.9199382,27.3811388 18.7320998,30.1900356 18.7320998,33.6549466 C18.7320998,37.12 15.9199382,39.9288256 12.4508409,39.9288256 C8.98188599,39.9288256 6.16951069,37.12 6.16951069,33.6549466 C6.16951069,30.1900356 8.98188599,27.3811388 12.4508409,27.3811388 L12.4508409,27.3811388 Z M12.4508409,31.2264057 C13.7937862,31.2264057 14.8823373,32.3138078 14.8823373,33.6549466 C14.8823373,34.9961566 13.7937862,36.0836299 12.4508409,36.0836299 C11.108038,36.0836299 10.0193444,34.9961566 10.0193444,33.6549466 C10.0193444,32.3138078 11.108038,31.2264057 12.4508409,31.2264057 L12.4508409,31.2264057 Z M55.6926698,13.6341637 L58.869962,14.0133096 C59.4805796,14.0757295 59.9354964,14.5911744 59.9348551,15.1916014 L59.9357102,17.262847 L58.3190594,17.262847 C57.8714822,17.262847 57.5085606,17.6253381 57.5085606,18.0723843 C57.5085606,18.5194306 57.8714822,18.8819217 58.3190594,18.8819217 L59.936209,18.8819217 L59.9366366,20.0958007 L58.3190594,20.0958007 C57.8714822,20.0958007 57.5085606,20.4582206 57.5085606,20.9053381 C57.5085606,21.3523843 57.8714822,21.7148754 58.3190594,21.7148754 L59.9372067,21.7148754 L59.9380618,23.5635587 C59.9380618,24.2192883 59.4055439,24.7509609 58.7491781,24.7509609 L43.3234774,24.7509609 C42.652076,24.7509609 42.107658,24.2070463 42.107658,23.5366548 L42.1125036,1.2747331 C42.1125036,0.606690391 42.6547838,0.0651245552 43.3234774,0.0651245552 C48.6707458,0.0651245552 51.7891781,0.0659074733 57.136304,0.0659074733 C57.8049264,0.0659074733 58.3473492,0.60747331 58.3473492,1.27551601 C58.3473492,1.94348754 57.8051401,2.48498221 57.136304,2.48498221 L54.2186793,2.48498221 L55.6926698,13.6341637 Z M45.9554964,2.48419929 L47.3738337,11.767331 C47.4289169,12.1270463 47.6497482,12.4325979 48.01438,12.4760854 L53.2091544,13.3377224 L51.7743563,2.48462633 L45.9554964,2.48419929 Z" id="Fill-1" fill="#8B98A3" mask="url(#mask-2)"></path>
                </g>
                <path d="M17.8601544,10.7019431 L17.6578504,14.1304128 C20.4652375,14.1191673 23.3518646,14.1617295 25.9602969,14.3094164 C26.4125059,14.3350391 26.7563302,13.9239359 26.4764252,13.5481352 C25.7983254,13.0435089 25.0337886,12.5264982 24.2597743,12.0711957 C23.1195606,11.4005907 22.0195368,10.8936868 21.2975416,10.8453594 C20.1311758,10.7672811 18.989323,10.7205196 17.8601544,10.7019431 M11.4497031,12.9251459 L11.7898931,11.3621566 C11.8496793,11.0877082 12.0637411,10.8853594 12.3443587,10.8650747 C13.7567815,10.7634377 14.5426247,10.7119786 16.0040736,10.6967473 C16.0989905,10.6958221 16.1939074,10.6948256 16.288753,10.6942562 L16.0855938,14.1420854 C14.383361,14.1602349 13.8553325,14.1670676 12.3478504,14.2070676 C11.4258314,14.2311246 11.2764727,13.699879 11.4497031,12.9251459 M13.3166865,18.3358221 C11.5486817,18.3442206 10.1221496,19.7825836 10.1305582,21.5485623 C10.1388955,23.3148256 11.5791093,24.7395231 13.347114,24.7310534 C15.1152613,24.722726 16.5418646,23.284363 16.5334561,21.5185267 C16.5249762,19.7521922 15.084905,18.3275658 13.3166865,18.3358221 M13.3247387,20.2985979 C12.9782779,20.3000925 12.668943,20.4379573 12.4491805,20.6595943 C12.2292043,20.8812313 12.0938836,21.1927616 12.0955226,21.5408754 C12.097304,21.8865694 12.23519,22.1958221 12.4572328,22.4151815 C12.6792755,22.634968 12.990962,22.7702705 13.3393468,22.7684199 C13.6857363,22.7669253 13.9951425,22.6286335 14.2148337,22.4074235 C14.4348812,22.1853594 14.5700594,21.8742562 14.5685629,21.5261423 C14.5669952,21.1800925 14.4288242,20.8711246 14.2067815,20.6517651 C13.9847387,20.4320498 13.6730523,20.2967473 13.3247387,20.2985979 M31.50538,18.249274 C29.7370903,18.2579573 28.3105582,19.6963203 28.3191805,21.4622989 C28.3275891,23.2281352 29.7675891,24.6531886 31.5357363,24.64479 C33.3038836,24.6360356 34.7303444,23.1976726 34.7220071,21.4318363 C34.7135986,19.6659288 33.2733848,18.2408754 31.50538,18.249274 M31.5132185,20.2119075 C31.166829,20.2138292 30.8574228,20.3516228 30.6376603,20.573331 C30.4178979,20.7950391 30.2823634,21.1064982 30.2842874,21.4541851 C30.2857126,21.800306 30.4237411,22.1092028 30.6456413,22.328847 C30.8676841,22.5486335 31.1793705,22.6839359 31.5277553,22.6820854 C31.8742874,22.6802349 32.1836223,22.5423701 32.4033848,22.3207331 C32.623361,22.0990961 32.7586105,21.7875658 32.7569715,21.4398078 C32.7554038,21.093758 32.6172328,20.7848612 32.3955463,20.5652171 C32.1732898,20.3457865 31.8616746,20.2105552 31.5132185,20.2119075 M35.7849762,22.4499858 C35.8625772,22.1213025 35.9031948,21.7785267 35.9014846,21.4263559 C35.8900831,19.0136868 33.9153563,17.0598078 31.4998931,17.0711246 C29.0841449,17.0828683 27.1281591,19.0551103 27.1397743,21.4677794 C27.141342,21.8195231 27.1850238,22.161516 27.2654038,22.488847 C24.0083017,22.5036512 20.8401306,22.5175302 17.5973515,22.5331886 C17.6743824,22.2052171 17.7146437,21.8635089 17.713076,21.5126192 C17.7013895,19.0999502 15.726734,17.1460712 13.3111283,17.1578149 C10.8957363,17.1692028 8.93953682,19.1418007 8.9510095,21.5543986 C8.95271971,21.9066406 8.99654394,22.2485623 9.07713777,22.5768897 C7.85647268,22.5835089 5.61431116,22.1163203 6.05447743,20.4339715 C6.58891924,18.3909822 8.36896675,11.5874947 8.63070071,10.5866406 C8.79538005,9.95753025 9.38091449,9.40400712 10.1147387,9.34059075 C13.7454513,9.0265694 17.7294656,9.03610676 21.4079929,9.28286833 C23.7205582,9.43788612 27.8893468,12.4486335 29.4542637,14.0140427 C31.0714846,14.2800925 37.7955463,15.2731886 38.1775653,17.0842918 C38.45519,18.3999502 38.5237411,19.2120498 38.5615796,20.8214448 C38.5979929,22.3748256 36.9360926,22.44479 35.7849762,22.4499858" id="Fill-4" fill="#02BFA4"></path>
            </g>
        </g>
    </g>
</svg>