<svg viewBox="0 0 49 29" xmlns="http://www.w3.org/2000/svg"><path d="M14.717 27.695c-.287.287-.591.43-.913.43-.323 0-.627-.143-.913-.43L.43 15.235a1.02 1.02 0 0 1-.43-.86c0-.358.143-.644.43-.86l12.46-12.46c.287-.287.591-.43.914-.43.322 0 .626.143.913.43l.752.752c.286.215.43.501.43.86 0 .357-.144.68-.43.966l-9.024 8.916h40.39c.359 0 .663.125.914.376.25.25.376.555.376.913v1.074c0 .358-.125.663-.376.913-.25.25-.555.376-.913.376H6.446l9.023 8.916c.286.287.43.609.43.967s-.144.645-.43.86l-.752.751z" fill="#000" fill-rule="evenodd"></path></svg>