<?xml version="1.0" encoding="UTF-8"?>
<svg width="69px" height="40px" viewBox="0 0 69 40" version="1.1" xmlns="http://www.w3.org/2000/svg" xmlns:xlink="http://www.w3.org/1999/xlink">
    <!-- Generator: Sketch 53.2 (72643) - https://sketchapp.com -->
    <title>chat</title>
    <desc>Created with Sketch.</desc>
    <defs>
        <polygon id="path-1" points="1.47593583e-05 0.0626055046 15.497341 0.0626055046 15.497341 15.4754275 1.47593583e-05 15.4754275"></polygon>
        <polygon id="path-3" points="0.061339893 0.0400440367 15.5586513 0.0400440367 15.5586513 15.4528881 0.061339893 15.4528881"></polygon>
    </defs>
    <g id="Page-1" stroke="none" stroke-width="1" fill="none" fill-rule="evenodd">
        <g id="Desktop-01.Home" transform="translate(-1093.000000, -6515.000000)">
            <g id="chat" transform="translate(1093.000000, 6515.000000)">
                <path d="M48.155624,32.1976147 C48.155624,32.0083303 48.162856,31.8207339 48.1762133,31.6348991 C48.1753277,31.6232294 48.1738518,31.6114862 48.1729662,31.5997431 C47.8658978,27.6197798 44.4955245,24.4577982 40.418547,24.4577982 L18.3477716,24.4577982 C14.0703619,24.4577982 10.5706229,27.9384587 10.5706229,32.1926239 C10.5706229,36.446789 14.0703619,39.9273761 18.3477716,39.9273761 L40.418547,39.9273761 C40.6646593,39.9273761 40.9079673,39.9499083 41.1483972,39.9273761 L55.0959908,39.9273761 C55.0568047,39.9116697 55.0192421,39.8950092 54.980425,39.8790092 C51.1341363,39.4097248 48.155624,36.1497615 48.155624,32.1976147" id="Fill-1" fill="#02BFA4"></path>
                <path d="M20.9853648,7.81322569 C20.9853648,7.62394128 20.9782065,7.43641835 20.9648493,7.25051009 C20.9657349,7.23876697 20.967137,7.22709725 20.9680964,7.21535413 C21.275091,3.23539083 24.6455381,0.0734091743 28.7224418,0.0734091743 L50.6125627,0.0734091743 C54.8900461,0.0734091743 58.3897113,3.55406972 58.3897113,7.80816147 L58.3897113,7.80823486 C58.3897113,12.0624 54.8900461,15.5429872 50.6125627,15.5429872 L28.7224418,15.5429872 C28.4764033,15.5429872 28.2330215,15.5655193 27.9926653,15.5429872 L14.044998,15.5429872 C14.0842579,15.5272807 14.1217466,15.5106202 14.1605637,15.4946936 C18.0068525,15.0253358 20.9853648,11.7653725 20.9853648,7.81322569" id="Fill-3" fill="#8B98A3"></path>
                <g id="Group-10" transform="translate(0.000000, 0.010789)">
                    <path d="M10.570645,5.47273394 C10.570645,6.5412844 9.97030813,7.47023853 9.08681294,7.94436697 C8.68860545,8.15809174 8.23276267,8.27933945 7.74865572,8.27933945 C7.26447497,8.27933945 6.80863219,8.15809174 6.4104985,7.94436697 C5.52692952,7.47023853 4.92674021,6.5412844 4.92674021,5.47273394 C4.92674021,3.9226422 6.19014128,2.66612844 7.74865572,2.66612844 C9.30724396,2.66612844 10.570645,3.9226422 10.570645,5.47273394" id="Fill-5" fill="#8B98A3"></path>
                    <g id="Group-9">
                        <mask id="mask-2" fill="white">
                            <use xlink:href="#path-1"></use>
                        </mask>
                        <g id="Clip-8"></g>
                        <path d="M13.9431067,10.3711339 C13.666664,11.0214092 13.2925142,11.6174459 12.8282586,12.1487486 C12.5977912,10.532822 11.6060361,9.16049174 10.2258886,8.4024 C10.0265634,8.56878532 9.80886289,8.71660183 9.57426289,8.84247339 C9.01658053,9.14177615 8.38532278,9.29994128 7.74867786,9.29994128 C7.11181155,9.29994128 6.48070139,9.14177615 5.92309283,8.84247339 C5.68856663,8.71660183 5.4707185,8.56878532 5.27146717,8.4024 C3.89124578,9.16049174 2.89956449,10.532822 2.66909711,12.1487486 C2.2048415,11.6174459 1.83069176,11.0214092 1.55424898,10.3711339 C1.20393561,9.54728073 1.02615914,8.67183119 1.02615914,7.7690055 C1.02615914,6.86625321 1.20393561,5.99058349 1.55424898,5.16673028 C1.89268107,4.37047339 2.37759979,3.65546422 2.99520513,3.04129908 C3.61281048,2.42713394 4.33173882,1.9450055 5.13213882,1.60841835 C5.96043401,1.2597211 6.84090353,1.08320734 7.74867786,1.08320734 C8.6563784,1.08320734 9.53670032,1.2597211 10.3652169,1.60841835 C11.1656169,1.9450055 11.8845452,2.42713394 12.5021506,3.04129908 C13.1196821,3.65546422 13.6044533,4.37047339 13.9431067,5.16673028 C14.2934201,5.99058349 14.4711228,6.86625321 14.4711228,7.7690055 C14.4711228,8.67183119 14.2934201,9.54728073 13.9431067,10.3711339 M14.8882222,4.76915229 C14.4978372,3.85142752 13.9391955,3.02720734 13.2278682,2.3197578 C12.5162458,1.61208807 11.6877292,1.05649174 10.7650479,0.668455046 C9.80923187,0.266326606 8.79452599,0.0625834862 7.74867786,0.0625834862 C6.70282973,0.0625834862 5.68790246,0.266326606 4.7323816,0.668455046 C3.80962652,1.05649174 2.98103615,1.61208807 2.26948749,2.3197578 C1.55793882,3.02720734 0.999444706,3.85142752 0.609133476,4.76915229 C0.204800856,5.71953761 1.47593583e-05,6.72885872 1.47593583e-05,7.7690055 C1.47593583e-05,8.8090055 0.204800856,9.8184 0.609133476,10.7687119 C0.998485348,11.6842349 1.55506075,12.5064 2.26395273,13.212822 L2.26660941,13.215244 C2.26764257,13.216345 2.26845433,13.2172991 2.26948749,13.2181798 L2.26948749,13.2183266 L2.28528,13.2338128 L2.28550139,13.234033 C2.99336021,13.9341431 3.81656342,14.4843083 4.7323816,14.8696294 C5.68790246,15.2715376 6.70282973,15.4754275 7.74867786,15.4754275 C8.79452599,15.4754275 9.80923187,15.2715376 10.7648265,14.8696294 C11.6750361,14.4867303 12.4934426,13.9411156 13.1984971,13.2473174 L13.1988661,13.2469505 L13.2278682,13.2181798 C13.2292704,13.2169321 13.2305249,13.2154642 13.2319271,13.2140697 L13.2391591,13.2069505 L13.2393067,13.2069505 C13.9450993,12.5017028 14.4999035,11.6815193 14.8882222,10.7687119 C15.2922597,9.8184 15.497341,8.8090055 15.497341,7.7690055 C15.497341,6.72885872 15.2922597,5.71953761 14.8882222,4.76915229" id="Fill-7" fill="#8B98A3" mask="url(#mask-2)"></path>
                    </g>
                </g>
                <path d="M64.0608545,29.9013138 C64.0608545,30.9698642 63.4605176,31.8988183 62.5770225,32.3729468 C62.178815,32.5866716 61.7229722,32.7078459 61.2388652,32.7078459 C60.7546845,32.7078459 60.2988417,32.5866716 59.900708,32.3729468 C59.017139,31.8988183 58.4168759,30.9698642 58.4168759,29.9013138 C58.4168759,28.351222 59.6803508,27.0947083 61.2388652,27.0947083 C62.7973797,27.0947083 64.0608545,28.351222 64.0608545,29.9013138" id="Fill-11" fill="#02BFA4"></path>
                <g id="Group-15" transform="translate(53.428877, 24.451156)">
                    <mask id="mask-4" fill="white">
                        <use xlink:href="#path-3"></use>
                    </mask>
                    <g id="Clip-14"></g>
                    <path d="M14.0043581,10.3485211 C13.7279153,10.9987963 13.3538394,11.594833 12.8895837,12.1262092 C12.6591164,10.5101358 11.6673613,9.1378789 10.2871399,8.37986055 C10.0878886,8.54617248 9.87018802,8.6939156 9.63551422,8.81993394 C9.07790567,9.11908991 8.44657412,9.27732844 7.81000299,9.27732844 C7.17313668,9.27732844 6.54202652,9.11908991 5.98434417,8.81993394 C5.74981797,8.6939156 5.53204364,8.54617248 5.3327923,8.37986055 C3.95257091,9.1378789 2.96088963,10.5101358 2.73034845,12.1262092 C2.26609283,11.594833 1.8920169,10.9987963 1.61557412,10.3485211 C1.26518695,9.52466789 1.08748428,8.64929174 1.08748428,7.74646606 C1.08748428,6.84364037 1.26518695,5.96797064 1.61557412,5.14419083 C1.9540062,4.34786055 2.43892492,3.63285138 3.05645647,3.01868624 C3.67406182,2.4045211 4.39299016,1.92231927 5.19339016,1.58573211 C6.02175914,1.23710826 6.90222866,1.0605945 7.81000299,1.0605945 C8.71770353,1.0605945 9.59795166,1.23710826 10.426542,1.58573211 C11.226942,1.92231927 11.9458704,2.4045211 12.5634757,3.01868624 C13.1810073,3.63285138 13.6657046,4.34786055 14.0043581,5.14419083 C14.3547452,5.96797064 14.5324479,6.84364037 14.5324479,7.74646606 C14.5324479,8.64929174 14.3547452,9.52466789 14.0043581,10.3485211 M14.9495474,4.74653945 C14.5591624,3.82881468 14.0004468,3.0045945 13.2891934,2.29714495 C12.5775709,1.58947523 11.7489805,1.0338789 10.826373,0.645842202 C9.87048321,0.243713761 8.85585112,0.0400440367 7.81000299,0.0400440367 C6.76408107,0.0400440367 5.74922759,0.243713761 4.79355914,0.645842202 C3.87087786,1.0338789 3.04236128,1.58947523 2.33073882,2.29714495 C1.61926396,3.0045945 1.06076984,3.82881468 0.670384813,4.74653945 C0.266125989,5.69692477 0.061339893,6.70624587 0.061339893,7.74646606 C0.061339893,8.78646606 0.266125989,9.79578716 0.670384813,10.7461725 C1.05981048,11.661622 1.61638588,12.4837872 2.32520406,13.1902826 L2.32786075,13.1927046 C2.3289677,13.1937321 2.32977947,13.1946862 2.33073882,13.195567 L2.33073882,13.1957138 L2.34660513,13.2112734 L2.34675273,13.2114936 C3.05468535,13.9116037 3.87781476,14.4616954 4.79355914,14.8470165 C5.74922759,15.2489982 6.76408107,15.4528881 7.81000299,15.4528881 C8.85585112,15.4528881 9.87048321,15.2489982 10.8261517,14.8470165 C11.7363613,14.4641174 12.5547677,13.9185761 13.2597484,13.2247046 L13.2601912,13.2243376 L13.2891934,13.195567 C13.2905955,13.1942459 13.2918501,13.1929248 13.2932522,13.1914569 L13.3004105,13.1843376 L13.3006319,13.1843376 C14.0064244,12.4790899 14.5611549,11.6589064 14.9495474,10.7461725 C15.3535848,9.79578716 15.5586661,8.78646606 15.5586661,7.74646606 C15.5586661,6.70624587 15.3535848,5.69692477 14.9495474,4.74653945" id="Fill-13" fill="#02BFA4" mask="url(#mask-4)"></path>
                </g>
            </g>
        </g>
    </g>
</svg>