<?xml version="1.0" encoding="UTF-8"?>
<svg width="40px" height="40px" viewBox="0 0 40 40" version="1.1" xmlns="http://www.w3.org/2000/svg" xmlns:xlink="http://www.w3.org/1999/xlink">
    <!-- Generator: Sketch 53.2 (72643) - https://sketchapp.com -->
    <title>checkups</title>
    <desc>Created with Sketch.</desc>
    <defs>
        <polygon id="path-1" points="8.10071515e-06 0.0526915866 39.9480174 0.0526915866 39.9480174 39.889043 8.10071515e-06 39.889043"></polygon>
    </defs>
    <g id="Page-1" stroke="none" stroke-width="1" fill="none" fill-rule="evenodd">
        <g id="Desktop-01.Home" transform="translate(-1108.000000, -6304.000000)">
            <g id="checkups" transform="translate(1108.000000, 6304.000000)">
                <path d="M34.5429652,35.4600943 C34.6980695,35.6155451 34.9512545,35.6155451 35.1061919,35.4600943 L35.5035216,35.0647545 C35.6586259,34.9101359 35.6586259,34.6575423 35.5035216,34.5020361 L28.6442726,27.6619251 C28.4884451,27.5071956 28.2352601,27.5071956 28.0801001,27.6619251 L27.6838832,28.0580416 C27.5278331,28.2127157 27.5278331,28.4651983 27.6838832,28.6198169 L34.5429652,35.4600943 Z M15.2874437,16.8691373 L8.62001669,10.2175978 L4.98129624,8.59995562 L2.18841725,4.00228571 L3.95653964,2.24012205 L8.56683171,5.0242552 L10.1890292,8.65116227 L16.8582364,15.3019251 L15.2874437,16.8691373 Z M32.206943,38.3521886 L24.7835216,30.9492483 C25.2643561,30.4707462 24.59921,29.0297476 23.2971238,27.7323828 C22.6531739,27.0900527 21.9733408,26.6032288 21.3944256,26.3334369 L26.3506426,21.3908017 C26.6202949,21.9672788 27.1094743,22.6452261 27.7526453,23.289387 C29.054509,24.5867517 30.4995716,25.2510513 30.9793491,24.7706075 L38.4027705,32.1735479 C39.2670821,33.0363495 39.2670821,34.445337 38.4027705,35.3071956 L35.3485285,38.3521886 C34.4851627,39.2131595 33.0721446,39.2140472 32.206943,38.3521886 L32.206943,38.3521886 Z" id="Fill-1" fill="#8B98A3"></path>
                <g id="Group-5" transform="translate(0.000000, 0.002829)">
                    <mask id="mask-2" fill="white">
                        <use xlink:href="#path-1"></use>
                    </mask>
                    <g id="Clip-4"></g>
                    <path d="M17.6454186,26.3424854 L26.3624701,17.6496699 C27.4874214,16.5608488 29.0085897,16.11519 30.4545981,16.3146352 L30.4554882,16.3119723 C32.9629152,16.7079778 35.6136523,15.9423745 37.5458915,14.0162164 C39.7718164,11.7976865 40.4506481,8.61993343 39.5828317,5.81571706 L34.489758,10.8936644 L30.2196606,9.75452427 L29.0765174,5.49543967 L34.1684784,0.417492372 C31.3564618,-0.448915395 28.1708707,0.228033287 25.9450014,2.44772816 C24.0145981,4.3727767 23.2485897,7.01699307 23.643249,9.51480166 L23.6403561,9.51752011 C23.8412462,10.9850929 23.3779917,12.5248988 22.2475883,13.6540527 L13.6387983,22.2389071 C12.5066147,23.3661748 10.9624145,23.8283107 9.49087065,23.6287545 L9.48803338,23.6305853 C6.98327677,23.2361886 4.33081502,24.0011817 2.40130181,25.9244549 C0.175432545,28.1458696 -0.502564673,31.3216255 0.365529903,34.126896 L5.45749096,29.0480055 L9.72758832,30.1899196 L10.8707872,34.448061 L5.77854798,39.5250652 C8.59167733,40.3896976 11.7772684,39.7144133 14.0020807,37.4938863 C15.9343755,35.5688932 16.7004951,32.9246768 16.3031655,30.4240943 L16.3057803,30.4240943 C16.1068929,28.9803218 16.5536801,27.4642607 17.6454186,26.3424854" id="Fill-3" fill="#02BFA4" mask="url(#mask-2)"></path>
                </g>
            </g>
        </g>
    </g>
</svg>