<?xml version="1.0" encoding="UTF-8"?>
<svg width="36px" height="40px" viewBox="0 0 36 40" version="1.1" xmlns="http://www.w3.org/2000/svg" xmlns:xlink="http://www.w3.org/1999/xlink">
    <!-- Generator: Sketch 53.2 (72643) - https://sketchapp.com -->
    <title>insurance</title>
    <desc>Created with Sketch.</desc>
    <defs>
        <polygon id="path-1" points="0 0.00894531463 35.9853022 0.00894531463 35.9853022 39.9356913 0 39.9356913"></polygon>
    </defs>
    <g id="Page-1" stroke="none" stroke-width="1" fill="none" fill-rule="evenodd">
        <g id="Desktop-01.Home" transform="translate(-702.000000, -6304.000000)">
            <g id="insurance" transform="translate(702.000000, 6304.000000)">
                <g id="Group-5" transform="translate(0.000000, 0.055370)">
                    <mask id="mask-2" fill="white">
                        <use xlink:href="#path-1"></use>
                    </mask>
                    <g id="Clip-4"></g>
                    <path d="M29.4965353,15.4417428 L17.8452906,27.0138971 C17.8355137,27.0244437 17.824118,27.0364695 17.8111036,27.0493312 L15.9797655,28.8683023 C15.6379597,29.2077878 15.1827151,29.3946688 14.6963914,29.3946688 C14.2114921,29.3946688 13.7561827,29.2077235 13.414377,28.8682379 L11.5834921,27.049717 C11.5710604,27.0373698 11.560118,27.0259871 11.5507295,27.0158264 L6.48877986,21.9882379 C6.1469741,21.6487524 5.95875108,21.1965338 5.95875108,20.7149904 C5.95875108,20.2334469 6.1469741,19.7812283 6.48877986,19.4417428 L8.32011799,17.622836 C8.66198849,17.2833505 9.11723309,17.0963408 9.60206763,17.0963408 C10.0869022,17.0963408 10.5422115,17.2833505 10.8840173,17.622836 L14.6971036,21.4099743 L25.1012978,11.0763408 C25.4431036,10.736791 25.8984129,10.5498457 26.3832475,10.5498457 C26.868082,10.5498457 27.3233914,10.736791 27.6651971,11.0763408 L29.4965353,12.8952476 C29.838341,13.2347331 30.0266288,13.6868875 30.0266288,14.1684952 C30.0266288,14.6500386 29.838341,15.1022572 29.4965353,15.4417428 M35.9557511,9.20257878 C35.9411827,6.74907395 35.9260964,4.21196785 35.9260964,1.71852733 C35.9260964,1.47730547 35.7745209,1.26161415 35.5464777,1.17833441 C35.3183698,1.09511897 35.0623554,1.162 34.9050173,1.34592283 C34.1904561,2.18116399 33.1017799,2.89036013 31.7565065,3.396791 C30.3443482,3.92843087 28.7108158,4.20945981 27.0326719,4.20945981 C25.0168662,4.20945981 23.1177367,3.81621222 21.5405353,3.07222508 C20.063046,2.37524759 18.9915281,1.4093955 18.5233338,0.352675241 C18.4308734,0.143736334 18.2227079,0.00888102894 17.9929165,0.00894533762 C17.7631252,0.00894533762 17.5550892,0.143800643 17.462564,0.35273955 C16.9946288,1.4093955 15.9231755,2.37518328 14.4456216,3.07222508 C12.8684201,3.81621222 10.9691612,4.20945981 8.9533554,4.20945981 C7.27534101,4.20945981 5.64187338,3.92843087 4.22965036,3.396791 C2.88431223,2.89036013 1.79550647,2.18116399 1.08101007,1.34592283 C0.923671942,1.162 0.667528058,1.09518328 0.439484892,1.17833441 C0.211506475,1.26161415 0.0599309353,1.47730547 0.0599309353,1.71852733 C0.0599309353,4.21196785 0.0447151079,6.74900965 0.029952518,9.20257878 C0.0152546763,11.6560193 -2.58992806e-05,14.1929325 -2.58992806e-05,16.6860514 C-2.58992806e-05,21.5106817 1.70505324,26.2349904 4.93080863,30.3482379 C8.04506763,34.3194277 12.4822619,37.6183344 17.7624777,39.8884309 C17.8359022,39.9199421 17.9142475,39.9356977 17.9926576,39.9356977 C18.0710676,39.9356977 18.1494129,39.9199421 18.2228374,39.8884309 C23.5031827,37.6183987 27.940377,34.3194277 31.054636,30.3482379 C34.2803914,26.2349904 35.985341,21.5106817 35.985341,16.6860514 C35.985341,14.1929325 35.9702547,11.6560193 35.9557511,9.20257878" id="Fill-3" fill="#8B98A3" mask="url(#mask-2)"></path>
                </g>
                <path d="M28.7640065,13.6781994 L26.9326683,11.8592283 C26.6304885,11.559164 26.1360065,11.559164 25.8338266,11.8592283 L14.6970712,22.9204502 L10.1514885,18.4057878 C9.84930863,18.1056592 9.35482662,18.1056592 9.05264676,18.4057878 L7.22130863,20.2246945 C6.91912878,20.5248232 6.91912878,21.0159486 7.22130863,21.3160772 L12.302618,26.3628296 C12.3070856,26.3674598 12.3110353,26.3724759 12.3155676,26.3771061 L14.1469705,28.1960129 C14.2980281,28.3461093 14.4971935,28.4210932 14.696359,28.4210932 C14.8959777,28.4214791 15.0957259,28.3464952 15.2471719,28.1960772 L17.0785748,26.3771704 C17.0836899,26.3721543 17.0879633,26.3666238 17.0928194,26.3615434 L28.7640065,14.7695177 C29.0661863,14.4694534 29.0661863,13.978328 28.7640065,13.6781994" id="Fill-6" fill="#02BFA4"></path>
            </g>
        </g>
    </g>
</svg>