<?xml version="1.0" encoding="UTF-8"?>
<svg width="130px" height="40px" viewBox="0 0 130 40" version="1.1" xmlns="http://www.w3.org/2000/svg" xmlns:xlink="http://www.w3.org/1999/xlink">
    <!-- Generator: Sketch 53.2 (72643) - https://sketchapp.com -->
    <title>unlimited</title>
    <desc>Created with Sketch.</desc>
    <defs>
        <polygon id="path-1" points="0 0.101931559 129.856667 0.101931559 129.856667 39.8479087 0 39.8479087"></polygon>
    </defs>
    <g id="Page-1" stroke="none" stroke-width="1" fill="none" fill-rule="evenodd">
        <g id="Desktop-01.Home" transform="translate(-247.000000, -6515.000000)">
            <g id="unlimited" transform="translate(247.000000, 6515.050190)">
                <path d="M13.6587727,13.967057 C14.1460455,13.967057 14.5457424,13.913673 14.8580152,13.8066008 C15.1699848,13.6998327 15.4251364,13.5545856 15.6234697,13.3711635 C15.8210455,13.1875894 15.9810455,12.973597 16.1030152,12.7288821 C16.2248333,12.4844715 16.3315,12.2245475 16.4230152,11.9492624 L18.1133182,11.9492624 L18.1133182,28.000365 L15.6004394,28.000365 L15.6004394,15.7556502 L13.6587727,15.7556502 L13.6587727,13.967057 Z" id="Fill-1" fill="#02BFA4"></path>
                <path d="M41.520697,15.984943 C41.520697,15.266616 41.4026667,14.7811407 41.1664545,14.5288213 C40.9303939,14.2768061 40.6144848,14.1505703 40.2185758,14.1505703 C39.8225152,14.1505703 39.5064545,14.2692015 39.2705455,14.5060076 C39.0343333,14.74327 38.9166061,15.1519392 38.9166061,15.7327757 L38.9166061,17.4526236 L36.5408485,17.4526236 L36.5408485,15.893384 C36.5408485,14.5942205 36.8567576,13.5968061 37.4890303,12.9009886 C38.120697,12.2054753 39.0537273,11.8576426 40.2872121,11.8576426 C41.520697,11.8576426 42.4534242,12.2054753 43.0853939,12.9009886 C43.7172121,13.5968061 44.0335758,14.5942205 44.0335758,15.893384 C44.0335758,16.7341445 43.911303,17.4947529 43.6681212,18.1747529 C43.4241818,18.8552091 43.1158485,19.4742205 42.7426667,20.0322433 C42.3696364,20.5904183 41.966,21.1063118 41.5320606,21.580076 C41.0981212,22.0539924 40.6944848,22.5052471 40.3214545,22.9327757 C39.9481212,23.3610646 39.6397879,23.7776426 39.396303,24.1826616 C39.1525152,24.5876806 39.030697,25.0120152 39.030697,25.4552091 C39.030697,25.6082129 39.0381212,25.7228897 39.0537273,25.7990875 L43.8050909,25.7990875 L43.8050909,28.0921673 L36.5408485,28.0921673 L36.5408485,26.12 C36.5408485,25.3403802 36.6626667,24.6526236 36.906303,24.0564259 C37.1497879,23.4602281 37.4582727,22.9137643 37.8314545,22.4170342 C38.2044848,21.9203042 38.6043333,21.4538403 39.030697,21.018251 C39.4570606,20.5825095 39.8567576,20.1203042 40.2299394,19.6308745 C40.6031212,19.141749 40.9114545,18.6069962 41.1552424,18.0258555 C41.3985758,17.445019 41.520697,16.7645627 41.520697,15.984943" id="Fill-3" fill="#02BFA4"></path>
                <path d="M65.9217424,15.8932928 C65.9217424,15.1749658 65.8035606,14.6893384 65.5676515,14.4371711 C65.3314394,14.1851559 65.0156818,14.0589202 64.6197727,14.0589202 C64.2234091,14.0589202 63.9076515,14.1773992 63.6715909,14.4143574 C63.4355303,14.6516198 63.3176515,15.0601369 63.3176515,15.6411255 L63.3176515,16.6729125 L60.9420455,16.6729125 L60.9420455,15.8015817 C60.9420455,14.5024183 61.257803,13.5050038 61.8899242,12.8091863 C62.5217424,12.113673 63.4547727,11.7658403 64.6881061,11.7658403 C65.9217424,11.7658403 66.8544697,12.113673 67.4865909,12.8091863 C68.1182576,13.5050038 68.4346212,14.5024183 68.4346212,15.8015817 L68.4346212,16.2143574 C68.4346212,17.9266008 67.8481061,19.0272852 66.6756818,19.5161065 C67.3150758,19.7913916 67.7682576,20.2155741 68.0347727,20.7888061 C68.3009848,21.3621901 68.4346212,22.0615057 68.4346212,22.887057 L68.4346212,24.1481977 C68.4346212,25.4476654 68.1182576,26.4449278 67.4865909,27.1405932 C66.8544697,27.8364106 65.9217424,28.1837871 64.6881061,28.1837871 C63.4547727,28.1837871 62.5217424,27.8364106 61.8899242,27.1405932 C61.257803,26.4449278 60.9420455,25.4476654 60.9420455,24.1481977 L60.9420455,22.8181597 L63.3176515,22.8181597 L63.3176515,24.308654 C63.3176515,24.8899468 63.4355303,25.2984639 63.6715909,25.5354221 C63.9076515,25.7726844 64.2234091,25.8908593 64.6197727,25.8908593 C65.0156818,25.8908593 65.3314394,25.7685779 65.5676515,25.5240152 C65.8035606,25.2797567 65.9217424,24.7980837 65.9217424,24.0794525 L65.9217424,22.8181597 C65.9217424,22.0694144 65.7923485,21.541962 65.5334091,21.2358023 C65.2743182,20.9305551 64.8556818,20.7775513 64.2770455,20.7775513 L63.4318939,20.7775513 L63.4318939,18.4844715 L64.4141667,18.4844715 C64.8859848,18.4844715 65.2553788,18.3621901 65.5218939,18.1176274 C65.7884091,17.8732167 65.9217424,17.4295665 65.9217424,16.7875894 L65.9217424,15.8932928 Z" id="Fill-5" fill="#02BFA4"></path>
                <path d="M89.6832879,22.7952548 L89.6832879,16.7646844 L87.1476818,22.7952548 L89.6832879,22.7952548 Z M84.8404091,22.7952548 L89.4090455,11.9493232 L92.1504091,11.9493232 L92.1504091,22.7952548 L93.3382879,22.7952548 L93.3382879,25.0881825 L92.1504091,25.0881825 L92.1504091,28.0004259 L89.6832879,28.0004259 L89.6832879,25.0881825 L84.8404091,25.0881825 L84.8404091,22.7952548 Z" id="Fill-7" fill="#02BFA4"></path>
                <g id="Group-11">
                    <mask id="mask-2" fill="white">
                        <use xlink:href="#path-1"></use>
                    </mask>
                    <g id="Clip-10"></g>
                    <path d="M124.401258,34.2055057 L117.542015,34.2055057 L117.542015,32.1121217 C117.542015,30.9197262 117.309894,30.0103726 116.845652,29.3834525 C116.380652,28.7568365 115.684136,28.4432243 114.755197,28.4432243 C113.765197,28.4432243 113.034288,28.8330342 112.562318,29.6128061 L112.768076,25.7834525 L117.131106,25.7834525 L117.131106,23.4903726 L110.506409,23.4903726 L110.049591,32.7998783 L112.425197,32.7998783 L112.425197,32.3185095 C112.425197,31.7375209 112.543076,31.3288517 112.779288,31.0917414 C113.015348,30.8550875 113.331106,30.7361521 113.727167,30.7361521 C114.123227,30.7361521 114.439136,30.8550875 114.675348,31.0917414 C114.911106,31.3288517 115.029439,31.7375209 115.029439,32.3185095 L115.029439,34.2055057 L103.1905,34.2055057 L103.1905,5.74436502 L109.949894,5.74436502 L109.949894,13.0807909 C109.949894,14.3909049 110.279894,15.3965323 110.940197,16.097673 C111.600045,16.79927 112.552167,17.149384 113.795803,17.149384 C115.039591,17.149384 115.991258,16.79927 116.651561,16.097673 C117.311409,15.3965323 117.641864,14.3909049 117.641864,13.0807909 L117.641864,10.1220076 C117.641864,8.91987833 117.407621,8.00307224 116.939439,7.37098099 C116.470955,6.73919392 115.768379,6.42314829 114.832318,6.42314829 C113.711258,6.42314829 112.928227,6.90101901 112.483227,7.85630418 L112.483227,5.74436502 L124.401258,5.74436502 L124.401258,34.2055057 Z M78.4839848,34.2055057 L99.6948939,34.2055057 L99.6948939,5.74436502 L78.4839848,5.74436502 L78.4839848,34.2055057 Z M54.0829242,34.2055057 L75.2938333,34.2055057 L75.2938333,5.74436502 L54.0829242,5.74436502 L54.0829242,34.2055057 Z M29.6818636,34.2055057 L50.8926212,34.2055057 L50.8926212,5.74436502 L29.6818636,5.74436502 L29.6818636,34.2055057 Z M5.28080303,34.2055057 L26.4915606,34.2055057 L26.4915606,5.74436502 L5.28080303,5.74436502 L5.28080303,34.2055057 Z M112.483227,10.3299163 C112.483227,9.74436502 112.601864,9.33219772 112.839894,9.09311027 C113.078076,8.854327 113.396409,8.73478327 113.795803,8.73478327 C114.194894,8.73478327 114.513227,8.854327 114.751561,9.09311027 C114.989591,9.33219772 115.10853,9.74436502 115.10853,10.3299163 L115.10853,13.242616 C115.10853,13.8286236 114.989591,14.2366844 114.751561,14.4678631 C114.513227,14.6990418 114.194894,14.8146312 113.795803,14.8146312 C113.396409,14.8146312 113.078076,14.6990418 112.839894,14.4678631 C112.601864,14.2366844 112.483227,13.8286236 112.483227,13.242616 L112.483227,10.3299163 Z M2.99989394,39.8479392 L126.856712,39.8479392 C128.513566,39.8479392 129.856712,38.5047934 129.856712,36.8479392 L129.856712,3.10193156 C129.856712,1.44507731 128.513566,0.101931559 126.856712,0.101931559 L2.99989394,0.101931559 C1.34303969,0.101931559 -0.000106060606,1.44507731 -0.000106060606,3.10193156 L-0.000106060606,36.8479392 C-0.000106060606,38.5047934 1.34303969,39.8479392 2.99989394,39.8479392 Z" id="Fill-9" fill="#8B98A3" mask="url(#mask-2)"></path>
                </g>
                <path d="M116.845636,29.3834525 C116.380788,28.7568365 115.684121,28.4432243 114.755182,28.4432243 C113.765182,28.4432243 113.034273,28.8330342 112.562303,29.6128061 L112.768061,25.7834525 L117.131091,25.7834525 L117.131091,23.4903726 L110.506394,23.4903726 L110.049576,32.7998783 L112.425182,32.7998783 L112.425182,32.3185095 C112.425182,31.737673 112.543212,31.3288517 112.779273,31.0917414 C113.015333,30.8550875 113.331242,30.7363042 113.727152,30.7363042 C114.123212,30.7363042 114.439121,30.8550875 114.675333,31.0917414 C114.911091,31.3288517 115.029576,31.737673 115.029576,32.3185095 L115.029576,34.2055057 L117.542152,34.2055057 L117.542152,32.1121217 C117.542152,30.9198783 117.309879,30.0103726 116.845636,29.3834525" id="Fill-12" fill="#02BFA4"></path>
                <path d="M112.483212,10.3298555 C112.483212,9.74430418 112.601848,9.33213688 112.839879,9.09304943 C113.078061,8.85426616 113.396394,8.73487452 113.795788,8.73487452 C114.194879,8.73487452 114.513212,8.85426616 114.751697,9.09304943 C114.989576,9.33213688 115.108515,9.74430418 115.108515,10.3298555 L115.108515,13.2425551 C115.108515,13.8285627 114.989576,14.2366236 114.751697,14.4679544 C114.513212,14.6991331 114.194879,14.8145703 113.795788,14.8145703 C113.396394,14.8145703 113.078061,14.6991331 112.839879,14.4679544 C112.601848,14.2366236 112.483212,13.8285627 112.483212,13.2425551 L112.483212,10.3298555 Z M110.940182,16.0976122 C111.60003,16.7992091 112.552152,17.1494753 113.795788,17.1494753 C115.039576,17.1494753 115.991242,16.7992091 116.651545,16.0976122 C117.311394,15.3964715 117.641848,14.3909962 117.641848,13.0808821 L117.641848,10.1219468 C117.641848,8.91981749 117.407606,8.00301141 116.939424,7.37092015 C116.470939,6.73928517 115.768515,6.42308745 114.832303,6.42308745 C113.711242,6.42308745 112.928364,6.90095817 112.483212,7.85624335 L112.483212,5.74430418 L109.949879,5.74430418 L109.949879,13.0808821 C109.949879,14.3909962 110.279879,15.3964715 110.940182,16.0976122 L110.940182,16.0976122 Z" id="Fill-14" fill="#02BFA4"></path>
            </g>
        </g>
    </g>
</svg>