<?xml version="1.0" encoding="UTF-8"?>
<svg width="46px" height="40px" viewBox="0 0 46 40" version="1.1" xmlns="http://www.w3.org/2000/svg" xmlns:xlink="http://www.w3.org/1999/xlink">
    <!-- Generator: Sketch 53.2 (72643) - https://sketchapp.com -->
    <title>valet</title>
    <desc>Created with Sketch.</desc>
    <g id="Page-1" stroke="none" stroke-width="1" fill="none" fill-rule="evenodd">
        <g id="Desktop-01.Home" transform="translate(-290.000000, -6304.000000)">
            <g id="valet" transform="translate(290.000000, 6304.000000)">
                <path d="M28.4690657,11.2924412 C26.926794,11.2924412 25.6831226,10.0544665 25.6831226,8.51942134 C25.6831226,6.9843038 26.926794,5.74632911 28.4690657,5.74632911 C30.0112648,5.74632911 31.2550088,6.9843038 31.2550088,8.51942134 C31.2550088,10.0544665 30.0112648,11.2924412 28.4690657,11.2924412 M28.5188445,0 C26.9442348,0 25.4069773,0.434285714 24.0731953,1.25584087 C22.7512585,2.07009042 21.6874449,3.22734177 20.9966455,4.60245931 L20.8460009,4.90235081 L7.92261706,4.90235081 C7.83127109,4.90235081 7.74857283,4.93374322 7.71187457,4.98242315 L7.68862022,5.01330922 L4.57675292,8.11074141 C4.44245908,8.2444123 4.44245908,8.49728752 4.57675292,8.63103074 L4.59906256,8.65461121 L7.32243697,11.7103074 C7.4574575,11.8373237 7.6735049,11.8903436 7.86215577,11.7260036 L10.0806202,9.80831826 L12.751527,11.7315009 C12.9228098,11.8310307 13.1365318,11.8196745 13.2559283,11.7035081 L15.1180199,9.7882821 L17.1633122,11.7011212 C17.2003738,11.7380108 17.3058904,11.7898011 17.4247055,11.7898011 L20.8011637,11.7898011 L20.9499915,12.0960579 C22.3727213,15.0226401 25.2729014,16.8407233 28.5188445,16.8407233 C33.183448,16.8407233 36.9784117,13.0633635 36.9784117,8.4203255 C36.9784117,3.77735986 33.183448,0 28.5188445,0" id="Fill-1" fill="#02BFA4"></path>
                <path d="M28.4690657,7.57853888 C27.9217893,7.57853888 27.5238493,7.92515732 27.5238493,8.46989512 C27.5238493,9.01463291 27.9715681,9.41072694 28.4690657,9.41072694 C28.9665633,9.41072694 29.4142821,9.0641085 29.4142821,8.51944304 C29.4142821,7.97470524 28.9665633,7.57853888 28.4690657,7.57853888" id="Fill-3" fill="#02BFA4"></path>
                <g id="Group-9" transform="translate(0.000000, 13.923906)" fill="#8B98A3">
                    <path d="M43.9410967,3.80593852 L40.6078771,11.2832622 L32.15049,17.7702061 L16.0317412,17.7702061 C15.9668471,17.7702061 15.9028976,17.7772224 15.8405469,17.79017 L9.16633207,11.1842387 C10.1613273,10.8376203 11.0567649,10.193859 11.902569,9.55009765 C13.2955043,8.5597179 14.6885122,7.51986257 16.67843,7.51986257 C18.6684205,7.51986257 19.7131946,7.96550452 20.857381,8.46069439 C22.051419,8.95588427 23.2453842,9.50062206 25.2850809,9.50062206 L32.1007112,9.50062206 C32.2997539,9.50062206 32.9465153,9.55009765 33.2947491,9.84724051 C33.3942341,9.94626401 33.5434979,10.0947631 33.5434979,10.5404774 C33.5434979,12.273642 32.8967365,12.273642 32.2500477,12.273642 L24.7378771,12.273642 C24.2403795,12.273642 23.792588,12.6698083 23.792588,13.2144738 C23.792588,13.7592116 24.1906006,14.1553056 24.7378771,14.1553056 L32.2500477,14.1553056 C33.6927618,14.1553056 35.4340035,13.5116166 35.4340035,10.5404774 L35.4340035,10.391906 L39.0158992,8.06452803 C39.165163,7.96550452 39.264648,7.81693309 39.364133,7.66836166 L41.6028724,2.71653526 C41.801915,2.22134539 42.29934,1.92427486 42.7968376,1.92427486 C43.4933052,1.92427486 44.0903605,2.51848825 44.0903605,3.21172514 C44.0903605,3.40977215 44.0405817,3.6078915 43.9410967,3.80593852 M42.7471314,0.0425388788 C41.4536085,0.0425388788 40.3093494,0.785323689 39.8616306,1.92420253 L37.722449,6.57895841 L34.687757,8.5597179 C34.6379782,8.51024231 34.6379782,8.46069439 34.5881994,8.46069439 C33.6429829,7.56933816 32.2997539,7.56933816 32.0510051,7.61888608 L25.2850809,7.61888608 C23.6433968,7.61888608 22.6981077,7.22271971 21.6036275,6.72752984 C20.4096622,6.23233996 19.0664332,5.63812658 16.67843,5.63812658 C14.0915295,5.63812658 12.2508028,6.97512477 10.8080161,8.01498011 C9.66375703,8.85686076 8.7185406,9.55009765 7.67383918,9.55009765 L7.62406035,9.55009765 L6.13156746,8.06452803 C5.78340632,7.71790958 5.18635103,7.71790958 4.78841106,8.06452803 L0.261153555,12.5707848 C-0.0870802528,12.9174033 -0.0870802528,13.5116166 0.261153555,13.9077107 L12.201024,25.7921953 C12.399994,25.9902423 12.5990367,26.0397902 12.8477128,26.0397902 C13.0965343,26.0397902 13.3452831,25.9407667 13.4944742,25.7921953 L18.0217318,21.2860108 C18.3699656,20.9393924 18.3699656,20.3451067 18.0217318,19.9490127 L17.7215327,19.6518698 L32.4490177,19.6518698 C32.6479877,19.6518698 32.8469577,19.6023942 32.9962215,19.4538228 L41.9014,12.5707848 C42.000885,12.4717613 42.10037,12.3727378 42.199855,12.224094 L45.6325596,4.54872333 C45.8316022,4.10308137 45.9310872,3.65736709 45.9310872,3.21172514 C45.8813084,1.47856058 44.4883005,0.0425388788 42.7471314,0.0425388788" id="Fill-7"></path>
                </g>
            </g>
        </g>
    </g>
</svg>